<svg width="621" height="498" viewBox="0 0 621 498" fill="none" xmlns="http://www.w3.org/2000/svg">
<rect y="119.95" width="30" height="579" transform="rotate(-90 0 119.95)" fill="#E8308A"/>
<rect y="264.95" width="30" height="331" transform="rotate(-90 0 264.95)" fill="#1E487D"/>
<rect x="303" y="247.08" width="30" height="266.577" transform="rotate(-20 303 247.08)" fill="#1E487D"/>
<rect y="390.95" width="30" height="621" transform="rotate(-90 0 390.95)" fill="#0075BF"/>
<rect x="327.837" width="30" height="526.627" transform="rotate(24.4681 327.837 0)" fill="#009E3D"/>
<rect x="248.322" y="154.903" width="100" height="50" rx="25" transform="rotate(-65 248.322 154.903)" fill="#D9D9D9" stroke="black" stroke-width="5"/>
<rect x="137.322" y="393.308" width="100" height="50" rx="25" transform="rotate(-65 137.322 393.308)" fill="#D9D9D9" stroke="black" stroke-width="5"/>
<rect x="396.5" y="79.45" width="50" height="50" rx="25" fill="#D9D9D9" stroke="black" stroke-width="5"/>
<rect x="206.5" y="224.45" width="50" height="50" rx="25" fill="#D9D9D9" stroke="black" stroke-width="5"/>
<rect x="341.5" y="350.45" width="50" height="50" rx="25" fill="#D9D9D9" stroke="black" stroke-width="5"/>
<rect x="508.5" y="350.45" width="50" height="50" rx="25" fill="#D9D9D9" stroke="black" stroke-width="5"/>
<rect x="95.5" y="79.45" width="50" height="50" rx="25" fill="#D9D9D9" stroke="black" stroke-width="5"/>
</svg>
